<mxfile host="app.diagrams.net" agent="Mozilla/5.0 (Windows NT 10.0; Win64; x64) AppleWebKit/537.36 (KHTML, like Gecko) Chrome/131.0.0.0 Safari/537.36 Edg/131.0.0.0" version="24.9.1">
  <diagram name="Страница — 1" id="dqO5Zem8wqS5aCHpQF_4">
    <mxGraphModel dx="2253" dy="783" grid="1" gridSize="10" guides="1" tooltips="1" connect="1" arrows="1" fold="1" page="1" pageScale="1" pageWidth="827" pageHeight="1169" math="0" shadow="0">
      <root>
        <mxCell id="0" />
        <mxCell id="1" parent="0" />
        <mxCell id="T4Mop3zjK0hiGYeQgxSI-1" value="&lt;font style=&quot;font-size: 15px;&quot;&gt;Главная страница&lt;/font&gt;" style="rounded=0;whiteSpace=wrap;html=1;" vertex="1" parent="1">
          <mxGeometry x="-340" y="100" width="130" height="70" as="geometry" />
        </mxCell>
        <mxCell id="T4Mop3zjK0hiGYeQgxSI-3" value="&lt;span style=&quot;font-size: 15px;&quot;&gt;Book модуль&lt;/span&gt;&lt;span style=&quot;color: rgba(0, 0, 0, 0); font-family: monospace; font-size: 0px; text-align: start; text-wrap-mode: nowrap;&quot;&gt;%3CmxGraphModel%3E%3Croot%3E%3CmxCell%20id%3D%220%22%2F%3E%3CmxCell%20id%3D%221%22%20parent%3D%220%22%2F%3E%3CmxCell%20id%3D%222%22%20value%3D%22%26lt%3Bfont%20style%3D%26quot%3Bfont-size%3A%2015px%3B%26quot%3B%26gt%3BUI%20%D0%BC%D0%BE%D0%B4%D1%83%D0%BB%D1%8C%26lt%3B%2Ffont%26gt%3B%22%20style%3D%22rounded%3D0%3BwhiteSpace%3Dwrap%3Bhtml%3D1%3B%22%20vertex%3D%221%22%20parent%3D%221%22%3E%3CmxGeometry%20x%3D%2270%22%20y%3D%2280%22%20width%3D%22130%22%20height%3D%2270%22%20as%3D%22geometry%22%2F%3E%3C%2FmxCell%3E%3C%2Froot%3E%3C%2FmxGraphModel%3E&lt;/span&gt;" style="rounded=0;whiteSpace=wrap;html=1;" vertex="1" parent="1">
          <mxGeometry x="414" y="100" width="130" height="70" as="geometry" />
        </mxCell>
        <mxCell id="T4Mop3zjK0hiGYeQgxSI-5" value="&lt;span style=&quot;font-size: 15px;&quot;&gt;Работа с PDF&lt;/span&gt;" style="rounded=0;whiteSpace=wrap;html=1;" vertex="1" parent="1">
          <mxGeometry x="-340" y="520" width="130" height="70" as="geometry" />
        </mxCell>
        <mxCell id="T4Mop3zjK0hiGYeQgxSI-12" value="&lt;font style=&quot;font-size: 15px;&quot;&gt;Страница добавления книг&lt;/font&gt;" style="rounded=0;whiteSpace=wrap;html=1;" vertex="1" parent="1">
          <mxGeometry x="-530" y="240" width="130" height="70" as="geometry" />
        </mxCell>
        <mxCell id="T4Mop3zjK0hiGYeQgxSI-13" value="&lt;font style=&quot;font-size: 15px;&quot;&gt;Страница чтения книг&lt;/font&gt;" style="rounded=0;whiteSpace=wrap;html=1;" vertex="1" parent="1">
          <mxGeometry x="-340" y="240" width="130" height="70" as="geometry" />
        </mxCell>
        <mxCell id="T4Mop3zjK0hiGYeQgxSI-14" value="&lt;p&gt;Страница аннотаций&lt;/p&gt;" style="rounded=0;whiteSpace=wrap;html=1;" vertex="1" parent="1">
          <mxGeometry x="-340" y="380" width="130" height="70" as="geometry" />
        </mxCell>
        <mxCell id="T4Mop3zjK0hiGYeQgxSI-15" value="&lt;p&gt;Страница настроек&lt;/p&gt;" style="rounded=0;whiteSpace=wrap;html=1;" vertex="1" parent="1">
          <mxGeometry x="-150" y="240" width="130" height="70" as="geometry" />
        </mxCell>
        <mxCell id="T4Mop3zjK0hiGYeQgxSI-16" value="Frontend / страницы модуль" style="swimlane;whiteSpace=wrap;html=1;" vertex="1" parent="1">
          <mxGeometry x="-540" y="60" width="540" height="410" as="geometry" />
        </mxCell>
        <mxCell id="T4Mop3zjK0hiGYeQgxSI-18" value="" style="endArrow=classic;html=1;rounded=0;exitX=0.5;exitY=1;exitDx=0;exitDy=0;entryX=0.5;entryY=0;entryDx=0;entryDy=0;" edge="1" parent="1" source="T4Mop3zjK0hiGYeQgxSI-1" target="T4Mop3zjK0hiGYeQgxSI-13">
          <mxGeometry width="50" height="50" relative="1" as="geometry">
            <mxPoint x="-10" y="390" as="sourcePoint" />
            <mxPoint x="40" y="340" as="targetPoint" />
          </mxGeometry>
        </mxCell>
        <mxCell id="T4Mop3zjK0hiGYeQgxSI-19" value="" style="endArrow=classic;html=1;rounded=0;exitX=1;exitY=1;exitDx=0;exitDy=0;entryX=0;entryY=0;entryDx=0;entryDy=0;" edge="1" parent="1" source="T4Mop3zjK0hiGYeQgxSI-1" target="T4Mop3zjK0hiGYeQgxSI-15">
          <mxGeometry width="50" height="50" relative="1" as="geometry">
            <mxPoint x="-265" y="180" as="sourcePoint" />
            <mxPoint x="-265" y="250" as="targetPoint" />
          </mxGeometry>
        </mxCell>
        <mxCell id="T4Mop3zjK0hiGYeQgxSI-20" value="" style="endArrow=classic;html=1;rounded=0;exitX=0.5;exitY=1;exitDx=0;exitDy=0;entryX=0.5;entryY=0;entryDx=0;entryDy=0;" edge="1" parent="1" source="T4Mop3zjK0hiGYeQgxSI-13" target="T4Mop3zjK0hiGYeQgxSI-14">
          <mxGeometry width="50" height="50" relative="1" as="geometry">
            <mxPoint x="-200" y="285" as="sourcePoint" />
            <mxPoint x="-140" y="285" as="targetPoint" />
          </mxGeometry>
        </mxCell>
        <mxCell id="T4Mop3zjK0hiGYeQgxSI-21" value="" style="endArrow=classic;html=1;rounded=0;exitX=0;exitY=1;exitDx=0;exitDy=0;entryX=1;entryY=0;entryDx=0;entryDy=0;" edge="1" parent="1" source="T4Mop3zjK0hiGYeQgxSI-1" target="T4Mop3zjK0hiGYeQgxSI-12">
          <mxGeometry width="50" height="50" relative="1" as="geometry">
            <mxPoint x="-265" y="320" as="sourcePoint" />
            <mxPoint x="-265" y="390" as="targetPoint" />
          </mxGeometry>
        </mxCell>
        <mxCell id="T4Mop3zjK0hiGYeQgxSI-22" value="&lt;span style=&quot;font-size: 15px;&quot;&gt;Категории&lt;/span&gt;" style="rounded=0;whiteSpace=wrap;html=1;" vertex="1" parent="1">
          <mxGeometry x="230" y="240" width="130" height="70" as="geometry" />
        </mxCell>
        <mxCell id="T4Mop3zjK0hiGYeQgxSI-23" value="&lt;span style=&quot;font-size: 15px;&quot;&gt;Модуль маркировки&lt;/span&gt;" style="rounded=0;whiteSpace=wrap;html=1;" vertex="1" parent="1">
          <mxGeometry x="414" y="240" width="130" height="70" as="geometry" />
        </mxCell>
        <mxCell id="T4Mop3zjK0hiGYeQgxSI-24" value="&lt;span style=&quot;font-size: 15px;&quot;&gt;Аннотационный модуль&lt;/span&gt;" style="rounded=0;whiteSpace=wrap;html=1;" vertex="1" parent="1">
          <mxGeometry x="610" y="240" width="130" height="70" as="geometry" />
        </mxCell>
        <mxCell id="T4Mop3zjK0hiGYeQgxSI-25" value="CRUD" style="text;html=1;align=center;verticalAlign=middle;resizable=0;points=[];autosize=1;strokeColor=none;fillColor=none;" vertex="1" parent="1">
          <mxGeometry x="610" y="210" width="60" height="30" as="geometry" />
        </mxCell>
        <mxCell id="T4Mop3zjK0hiGYeQgxSI-26" value="CRUD" style="text;html=1;align=center;verticalAlign=middle;resizable=0;points=[];autosize=1;strokeColor=none;fillColor=none;" vertex="1" parent="1">
          <mxGeometry x="414" y="70" width="60" height="30" as="geometry" />
        </mxCell>
        <mxCell id="T4Mop3zjK0hiGYeQgxSI-27" value="&lt;span style=&quot;font-size: 15px;&quot;&gt;Импорт / экспорт&lt;/span&gt;" style="rounded=0;whiteSpace=wrap;html=1;" vertex="1" parent="1">
          <mxGeometry x="414" y="380" width="130" height="70" as="geometry" />
        </mxCell>
        <mxCell id="T4Mop3zjK0hiGYeQgxSI-28" value="Backend / логика" style="swimlane;whiteSpace=wrap;html=1;" vertex="1" parent="1">
          <mxGeometry x="210" y="40" width="550" height="430" as="geometry" />
        </mxCell>
        <mxCell id="T4Mop3zjK0hiGYeQgxSI-29" value="" style="endArrow=classic;html=1;rounded=0;exitX=0.5;exitY=1;exitDx=0;exitDy=0;entryX=0.5;entryY=0;entryDx=0;entryDy=0;" edge="1" parent="1" source="T4Mop3zjK0hiGYeQgxSI-3" target="T4Mop3zjK0hiGYeQgxSI-23">
          <mxGeometry width="50" height="50" relative="1" as="geometry">
            <mxPoint x="-265" y="180" as="sourcePoint" />
            <mxPoint x="-265" y="250" as="targetPoint" />
          </mxGeometry>
        </mxCell>
        <mxCell id="T4Mop3zjK0hiGYeQgxSI-30" value="" style="endArrow=classic;html=1;rounded=0;exitX=1;exitY=1;exitDx=0;exitDy=0;entryX=0;entryY=1;entryDx=0;entryDy=0;entryPerimeter=0;" edge="1" parent="1" source="T4Mop3zjK0hiGYeQgxSI-3" target="T4Mop3zjK0hiGYeQgxSI-25">
          <mxGeometry width="50" height="50" relative="1" as="geometry">
            <mxPoint x="489" y="180" as="sourcePoint" />
            <mxPoint x="489" y="250" as="targetPoint" />
          </mxGeometry>
        </mxCell>
        <mxCell id="T4Mop3zjK0hiGYeQgxSI-31" value="" style="endArrow=classic;html=1;rounded=0;exitX=0.5;exitY=1;exitDx=0;exitDy=0;entryX=0.5;entryY=0;entryDx=0;entryDy=0;" edge="1" parent="1" source="T4Mop3zjK0hiGYeQgxSI-23" target="T4Mop3zjK0hiGYeQgxSI-27">
          <mxGeometry width="50" height="50" relative="1" as="geometry">
            <mxPoint x="554" y="180" as="sourcePoint" />
            <mxPoint x="620" y="250" as="targetPoint" />
          </mxGeometry>
        </mxCell>
        <mxCell id="T4Mop3zjK0hiGYeQgxSI-32" value="" style="endArrow=classic;html=1;rounded=0;exitX=0;exitY=1;exitDx=0;exitDy=0;entryX=0.977;entryY=0.1;entryDx=0;entryDy=0;entryPerimeter=0;" edge="1" parent="1" source="T4Mop3zjK0hiGYeQgxSI-3" target="T4Mop3zjK0hiGYeQgxSI-22">
          <mxGeometry width="50" height="50" relative="1" as="geometry">
            <mxPoint x="489" y="320" as="sourcePoint" />
            <mxPoint x="489" y="390" as="targetPoint" />
          </mxGeometry>
        </mxCell>
        <mxCell id="T4Mop3zjK0hiGYeQgxSI-34" value="Вспомогательные / дополнительные" style="swimlane;whiteSpace=wrap;html=1;" vertex="1" parent="1">
          <mxGeometry x="-370" y="485" width="950" height="125" as="geometry" />
        </mxCell>
        <mxCell id="T4Mop3zjK0hiGYeQgxSI-33" value="&lt;span style=&quot;font-size: 15px;&quot;&gt;ИИ модуль&lt;/span&gt;" style="rounded=0;whiteSpace=wrap;html=1;" vertex="1" parent="T4Mop3zjK0hiGYeQgxSI-34">
          <mxGeometry x="784" y="35" width="130" height="70" as="geometry" />
        </mxCell>
        <mxCell id="T4Mop3zjK0hiGYeQgxSI-35" value="" style="endArrow=classic;html=1;rounded=0;entryX=0.5;entryY=0;entryDx=0;entryDy=0;exitX=0.5;exitY=1;exitDx=0;exitDy=0;" edge="1" parent="1" source="T4Mop3zjK0hiGYeQgxSI-27" target="T4Mop3zjK0hiGYeQgxSI-33">
          <mxGeometry width="50" height="50" relative="1" as="geometry">
            <mxPoint x="130" y="490" as="sourcePoint" />
            <mxPoint x="180" y="440" as="targetPoint" />
          </mxGeometry>
        </mxCell>
        <mxCell id="T4Mop3zjK0hiGYeQgxSI-36" value="" style="endArrow=classic;html=1;rounded=0;exitX=0.5;exitY=1;exitDx=0;exitDy=0;entryX=0.5;entryY=0;entryDx=0;entryDy=0;" edge="1" parent="1" source="T4Mop3zjK0hiGYeQgxSI-14" target="T4Mop3zjK0hiGYeQgxSI-5">
          <mxGeometry width="50" height="50" relative="1" as="geometry">
            <mxPoint x="130" y="490" as="sourcePoint" />
            <mxPoint x="180" y="440" as="targetPoint" />
          </mxGeometry>
        </mxCell>
        <mxCell id="T4Mop3zjK0hiGYeQgxSI-37" value="&lt;span style=&quot;font-size: 15px;&quot;&gt;Таблица закладок&lt;/span&gt;" style="rounded=0;whiteSpace=wrap;html=1;" vertex="1" parent="1">
          <mxGeometry x="120" y="670" width="120" height="60" as="geometry" />
        </mxCell>
        <mxCell id="T4Mop3zjK0hiGYeQgxSI-38" value="&lt;span style=&quot;font-size: 15px;&quot;&gt;Таблица книг&lt;/span&gt;" style="rounded=0;whiteSpace=wrap;html=1;" vertex="1" parent="1">
          <mxGeometry x="-50" y="670" width="120" height="60" as="geometry" />
        </mxCell>
        <mxCell id="T4Mop3zjK0hiGYeQgxSI-39" value="&lt;span style=&quot;font-size: 15px;&quot;&gt;Таблица аннотаций&lt;/span&gt;" style="rounded=0;whiteSpace=wrap;html=1;" vertex="1" parent="1">
          <mxGeometry x="-50" y="770" width="120" height="60" as="geometry" />
        </mxCell>
        <mxCell id="T4Mop3zjK0hiGYeQgxSI-40" value="&lt;span style=&quot;font-size: 15px;&quot;&gt;Таблица категорий&lt;/span&gt;" style="rounded=0;whiteSpace=wrap;html=1;" vertex="1" parent="1">
          <mxGeometry x="120" y="770" width="120" height="60" as="geometry" />
        </mxCell>
        <mxCell id="T4Mop3zjK0hiGYeQgxSI-41" value="База данных" style="swimlane;whiteSpace=wrap;html=1;" vertex="1" parent="1">
          <mxGeometry x="-70" y="630" width="330" height="220" as="geometry" />
        </mxCell>
        <mxCell id="T4Mop3zjK0hiGYeQgxSI-42" value="" style="shape=flexArrow;endArrow=classic;startArrow=classic;html=1;rounded=0;exitX=1;exitY=0.5;exitDx=0;exitDy=0;" edge="1" parent="1" source="T4Mop3zjK0hiGYeQgxSI-16">
          <mxGeometry width="100" height="100" relative="1" as="geometry">
            <mxPoint x="200" y="530" as="sourcePoint" />
            <mxPoint x="210" y="265" as="targetPoint" />
          </mxGeometry>
        </mxCell>
        <mxCell id="T4Mop3zjK0hiGYeQgxSI-43" value="" style="shape=flexArrow;endArrow=classic;html=1;rounded=0;entryX=0.5;entryY=0;entryDx=0;entryDy=0;exitX=0.25;exitY=1;exitDx=0;exitDy=0;" edge="1" parent="1" source="T4Mop3zjK0hiGYeQgxSI-28" target="T4Mop3zjK0hiGYeQgxSI-41">
          <mxGeometry width="50" height="50" relative="1" as="geometry">
            <mxPoint x="220" y="510" as="sourcePoint" />
            <mxPoint x="270" y="460" as="targetPoint" />
          </mxGeometry>
        </mxCell>
      </root>
    </mxGraphModel>
  </diagram>
</mxfile>
